<?xml version="1.0" encoding="utf-8"?>
<!-- Generator: Adobe Illustrator 16.0.4, SVG Export Plug-In . SVG Version: 6.00 Build 0)  -->
<!DOCTYPE svg PUBLIC "-//W3C//DTD SVG 1.1//EN" "http://www.w3.org/Graphics/SVG/1.1/DTD/svg11.dtd">
<svg version="1.1" id="Layer_1" xmlns="http://www.w3.org/2000/svg" xmlns:xlink="http://www.w3.org/1999/xlink" x="0px" y="0px"
	 width="550px" height="50px" viewBox="0 0 550 50" enable-background="new 0 0 550 50" xml:space="preserve">
<line opacity="0.8" fill="none" stroke="#F2F2F2" stroke-miterlimit="10" x1="0" y1="35.5" x2="0" y2="50.5"/>
<line opacity="0.8" fill="none" stroke="#F2F2F2" stroke-miterlimit="10" x1="400" y1="50.5" x2="400" y2="35.5"/>
<line opacity="0.8" fill="none" stroke="#F2F2F2" stroke-miterlimit="10" x1="350" y1="50.5" x2="350" y2="40.5"/>
<line opacity="0.8" fill="none" stroke="#F2F2F2" stroke-miterlimit="10" x1="300" y1="50.5" x2="300" y2="35.5"/>
<line opacity="0.8" fill="none" stroke="#F2F2F2" stroke-miterlimit="10" x1="250" y1="50.5" x2="250" y2="40.5"/>
<line opacity="0.8" fill="none" stroke="#F2F2F2" stroke-miterlimit="10" x1="200" y1="50.5" x2="200" y2="35.5"/>
<line opacity="0.8" fill="none" stroke="#F2F2F2" stroke-miterlimit="10" x1="150" y1="50.5" x2="150" y2="40.5"/>
<line opacity="0.8" fill="none" stroke="#F2F2F2" stroke-miterlimit="10" x1="100" y1="50.5" x2="100" y2="35.5"/>
<line opacity="0.8" fill="none" stroke="#F2F2F2" stroke-miterlimit="10" x1="50" y1="50.5" x2="50" y2="40.5"/>
<line opacity="0.8" fill="none" stroke="#F2F2F2" stroke-miterlimit="10" x1="499" y1="50.5" x2="499" y2="35.5"/>
<line opacity="0.8" fill="none" stroke="#F2F2F2" stroke-miterlimit="10" x1="450" y1="50.5" x2="450" y2="40.5"/>
<path opacity="0.8" fill="none" stroke="#F2F2F2" stroke-miterlimit="10" d="M400.382,50"/>
<text transform="matrix(1 0 0 1 76.0488 45.5801)" opacity="0.8" fill="#F2F2F2" enable-background="new    " font-family="'Geogrotesque-Thin'" font-size="12">100</text>
<text transform="matrix(1 0 0 1 175.9512 45.5801)" opacity="0.8" fill="#F2F2F2" enable-background="new    " font-family="'Geogrotesque-Thin'" font-size="12">200</text>
<text transform="matrix(1 0 0 1 276 45.5801)" opacity="0.8" fill="#F2F2F2" enable-background="new    " font-family="'Geogrotesque-Thin'" font-size="12">300</text>
<text transform="matrix(1 0 0 1 376.0488 45.5801)" opacity="0.8" fill="#F2F2F2" enable-background="new    " font-family="'Geogrotesque-Thin'" font-size="12">400</text>
<text transform="matrix(1 0 0 1 475.9307 45.5801)" opacity="0.8" fill="#F2F2F2" enable-background="new    " font-family="'Geogrotesque-Thin'" font-size="12">500</text>
<line opacity="0.8" fill="none" stroke="#F2F2F2" stroke-miterlimit="10" x1="325" y1="50.5" x2="325" y2="45.5"/>
<line opacity="0.8" fill="none" stroke="#F2F2F2" stroke-miterlimit="10" x1="225" y1="50.5" x2="225" y2="45.5"/>
<line opacity="0.8" fill="none" stroke="#F2F2F2" stroke-miterlimit="10" x1="125" y1="50.5" x2="125" y2="45.5"/>
<line opacity="0.8" fill="none" stroke="#F2F2F2" stroke-miterlimit="10" x1="25" y1="50.5" x2="25" y2="45.5"/>
<line opacity="0.8" fill="none" stroke="#F2F2F2" stroke-miterlimit="10" x1="425" y1="50.5" x2="425" y2="45.5"/>
</svg>
