<?xml version="1.0" encoding="utf-8"?>
<!-- Generator: Adobe Illustrator 16.0.4, SVG Export Plug-In . SVG Version: 6.00 Build 0)  -->
<!DOCTYPE svg PUBLIC "-//W3C//DTD SVG 1.1//EN" "http://www.w3.org/Graphics/SVG/1.1/DTD/svg11.dtd">
<svg version="1.1" id="Layer_1" xmlns="http://www.w3.org/2000/svg" xmlns:xlink="http://www.w3.org/1999/xlink" x="0px" y="0px"
	 width="550px" height="50px" viewBox="0 0 550 50" enable-background="new 0 0 550 50" xml:space="preserve">
<line fill="none" stroke="#F2F2F2" stroke-width="0.8165" stroke-miterlimit="10" enable-background="new    " x1="0.5" y1="40.5" x2="0.5" y2="50.5"/>
<line fill="none" stroke="#F2F2F2" stroke-miterlimit="10" enable-background="new    " x1="400.5" y1="50.5" x2="400.5" y2="35.5"/>
<line fill="none" stroke="#F2F2F2" stroke-miterlimit="10" enable-background="new    " x1="350.5" y1="50.5" x2="350.5" y2="40.5"/>
<line fill="none" stroke="#F2F2F2" stroke-miterlimit="10" enable-background="new    " x1="300.5" y1="50.5" x2="300.5" y2="35.5"/>
<line fill="none" stroke="#F2F2F2" stroke-miterlimit="10" enable-background="new    " x1="250.5" y1="50.5" x2="250.5" y2="40.5"/>
<line fill="none" stroke="#F2F2F2" stroke-miterlimit="10" enable-background="new    " x1="200.5" y1="50.5" x2="200.5" y2="35.5"/>
<line fill="none" stroke="#F2F2F2" stroke-miterlimit="10" enable-background="new    " x1="150.5" y1="50.5" x2="150.5" y2="40.5"/>
<line fill="none" stroke="#F2F2F2" stroke-miterlimit="10" enable-background="new    " x1="100.5" y1="50.5" x2="100.5" y2="35.5"/>
<line fill="none" stroke="#F2F2F2" stroke-miterlimit="10" enable-background="new    " x1="50.5" y1="50.5" x2="50.5" y2="40.5"/>
<line fill="none" stroke="#F2F2F2" stroke-miterlimit="10" enable-background="new    " x1="499.5" y1="50.5" x2="499.5" y2="35.5"/>
<line fill="none" stroke="#F2F2F2" stroke-miterlimit="10" enable-background="new    " x1="450.5" y1="50.5" x2="450.5" y2="40.5"/>
<path fill="none" stroke="#F2F2F2" stroke-miterlimit="10" enable-background="new    " d="M400.882,50"/>
<text transform="matrix(1 0 0 1 76.0488 45.5801)" fill="#F2F2F2" font-family="'Geogrotesque-Light'" font-size="12">100</text>
<text transform="matrix(1 0 0 1 175.9512 45.5801)" fill="#F2F2F2" font-family="'Geogrotesque-Light'" font-size="12">200</text>
<text transform="matrix(1 0 0 1 276 45.5801)" fill="#F2F2F2" font-family="'Geogrotesque-Light'" font-size="12">300</text>
<text transform="matrix(1 0 0 1 376.0488 45.5801)" fill="#F2F2F2" font-family="'Geogrotesque-Light'" font-size="12">400</text>
<text transform="matrix(1 0 0 1 475.9307 45.5801)" fill="#F2F2F2" font-family="'Geogrotesque-Light'" font-size="12">500</text>
<line fill="none" stroke="#F2F2F2" stroke-miterlimit="10" enable-background="new    " x1="325.5" y1="50.5" x2="325.5" y2="45.5"/>
<line fill="none" stroke="#F2F2F2" stroke-miterlimit="10" enable-background="new    " x1="225.5" y1="50.5" x2="225.5" y2="45.5"/>
<line fill="none" stroke="#F2F2F2" stroke-miterlimit="10" enable-background="new    " x1="125.5" y1="50.5" x2="125.5" y2="45.5"/>
<line fill="none" stroke="#F2F2F2" stroke-miterlimit="10" enable-background="new    " x1="25.5" y1="50.5" x2="25.5" y2="45.5"/>
<line fill="none" stroke="#F2F2F2" stroke-miterlimit="10" enable-background="new    " x1="425.5" y1="50.5" x2="425.5" y2="45.5"/>
</svg>
