<?xml version="1.0" encoding="utf-8"?>
<!-- Generator: Adobe Illustrator 16.0.4, SVG Export Plug-In . SVG Version: 6.00 Build 0)  -->
<!DOCTYPE svg PUBLIC "-//W3C//DTD SVG 1.1//EN" "http://www.w3.org/Graphics/SVG/1.1/DTD/svg11.dtd">
<svg version="1.1" xmlns="http://www.w3.org/2000/svg" xmlns:xlink="http://www.w3.org/1999/xlink" x="0px" y="0px" width="500px"
	 height="20px" viewBox="0 30 500 20" enable-background="new 0 30 500 20" xml:space="preserve">
<g id="Layer_2">
	<rect y="30" fill="#F9F9FC" width="500" height="20"/>
</g>
<g id="Layer_1">
	<line fill="none" stroke="#5CADD5" stroke-miterlimit="10" x1="400.5" y1="50.5" x2="400.5" y2="35.5"/>
	<line fill="none" stroke="#5CADD5" stroke-miterlimit="10" x1="350.5" y1="50.5" x2="350.5" y2="40.5"/>
	<line fill="none" stroke="#5CADD5" stroke-miterlimit="10" x1="300.5" y1="50.5" x2="300.5" y2="35.5"/>
	<line fill="none" stroke="#5CADD5" stroke-miterlimit="10" x1="250.5" y1="50.5" x2="250.5" y2="40.5"/>
	<line fill="none" stroke="#5CADD5" stroke-miterlimit="10" x1="200.5" y1="50.5" x2="200.5" y2="35.5"/>
	<line fill="none" stroke="#5CADD5" stroke-miterlimit="10" x1="150.5" y1="50.5" x2="150.5" y2="40.5"/>
	<line fill="none" stroke="#5CADD5" stroke-miterlimit="10" x1="100.5" y1="50.5" x2="100.5" y2="35.5"/>
	<line fill="none" stroke="#5CADD5" stroke-miterlimit="10" x1="50.5" y1="50.5" x2="50.5" y2="40.5"/>
	<line fill="none" stroke="#5CADD5" stroke-miterlimit="10" x1="450.5" y1="50.5" x2="450.5" y2="40.5"/>
	<path fill="none" stroke="#5CADD5" stroke-miterlimit="10" d="M400.882,50"/>
	<text transform="matrix(1 0 0 1 71.0488 45.5801)" fill="#5CADD5" font-family="'Courier'" font-size="12">100</text>
	<text transform="matrix(1 0 0 1 170.9512 45.5801)" fill="#5CADD5" font-family="'Courier'" font-size="12">200</text>
	<text transform="matrix(1 0 0 1 271 45.5801)" fill="#5CADD5" font-family="'Courier'" font-size="12">300</text>
	<text transform="matrix(1 0 0 1 371.0488 45.5801)" fill="#5CADD5" font-family="'Courier'" font-size="12">400</text>
	<text transform="matrix(1 0 0 1 470.9307 45.5801)" fill="#5CADD5" font-family="'Courier'" font-size="12">500</text>
	<line fill="none" stroke="#5CADD5" stroke-miterlimit="10" x1="325.5" y1="50.5" x2="325.5" y2="45.5"/>
	<line fill="none" stroke="#5CADD5" stroke-miterlimit="10" x1="225.5" y1="50.5" x2="225.5" y2="45.5"/>
	<line fill="none" stroke="#5CADD5" stroke-miterlimit="10" x1="125.5" y1="50.5" x2="125.5" y2="45.5"/>
	<line fill="none" stroke="#5CADD5" stroke-miterlimit="10" x1="25.5" y1="50.5" x2="25.5" y2="45.5"/>
	<line fill="none" stroke="#5CADD5" stroke-miterlimit="10" x1="425.5" y1="50.5" x2="425.5" y2="45.5"/>
</g>
</svg>
