<?xml version="1.0" encoding="utf-8"?>
<!-- Generator: Adobe Illustrator 16.0.4, SVG Export Plug-In . SVG Version: 6.00 Build 0)  -->
<!DOCTYPE svg PUBLIC "-//W3C//DTD SVG 1.1//EN" "http://www.w3.org/Graphics/SVG/1.1/DTD/svg11.dtd">
<svg version="1.1" id="Layer_1" xmlns="http://www.w3.org/2000/svg" xmlns:xlink="http://www.w3.org/1999/xlink" x="0px" y="0px"
	 width="2000px" height="20px" viewBox="0 0 2000 20" enable-background="new 0 0 2000 20" xml:space="preserve">
<g id="Background">
	<g id="Layer_2">
		<rect fill="#F9F9FC" width="2000" height="20"/>
	</g>
</g>
<g id="Text">
	<text transform="matrix(1 0 0 1 74.3965 15.0957)" fill="#5CADD5" font-family="'Courier'" font-size="12">100</text>
	<text transform="matrix(1 0 0 1 174.3965 15.0957)" fill="#5CADD5" font-family="'Courier'" font-size="12">200</text>
	<text transform="matrix(1 0 0 1 274.3965 15.0957)" fill="#5CADD5" font-family="'Courier'" font-size="12">300</text>
	<text transform="matrix(1 0 0 1 374.3965 15.0957)" fill="#5CADD5" font-family="'Courier'" font-size="12">400</text>
	<text transform="matrix(1 0 0 1 474.3965 15.0957)" fill="#5CADD5" font-family="'Courier'" font-size="12">500</text>
	<text transform="matrix(1 0 0 1 574.3965 15.0957)" fill="#5CADD5" font-family="'Courier'" font-size="12">600</text>
	<text transform="matrix(1 0 0 1 674.3965 15.0957)" fill="#5CADD5" font-family="'Courier'" font-size="12">700</text>
	<text transform="matrix(1 0 0 1 774.3965 15.0957)" fill="#5CADD5" font-family="'Courier'" font-size="12">800</text>
	<text transform="matrix(1 0 0 1 874.3965 15.0957)" fill="#5CADD5" font-family="'Courier'" font-size="12">900</text>
	<text transform="matrix(1 0 0 1 967.1953 15.0957)" fill="#5CADD5" font-family="'Courier'" font-size="12">1000</text>
	<text transform="matrix(1 0 0 1 1067.1953 15.0957)" fill="#5CADD5" font-family="'Courier'" font-size="12">1100</text>
	<text transform="matrix(1 0 0 1 1167.1953 15.0957)" fill="#5CADD5" font-family="'Courier'" font-size="12">1200</text>
	<text transform="matrix(1 0 0 1 1267.1953 15.0957)" fill="#5CADD5" font-family="'Courier'" font-size="12">1300</text>
	<text transform="matrix(1 0 0 1 1367.1953 15.0957)" fill="#5CADD5" font-family="'Courier'" font-size="12">1400</text>
	<text transform="matrix(1 0 0 1 1467.1953 15.0957)" fill="#5CADD5" font-family="'Courier'" font-size="12">1500</text>
	<text transform="matrix(1 0 0 1 1567.1953 15.0957)" fill="#5CADD5" font-family="'Courier'" font-size="12">1500</text>
	<text transform="matrix(1 0 0 1 1667.1953 15.0957)" fill="#5CADD5" font-family="'Courier'" font-size="12">1700</text>
	<text transform="matrix(1 0 0 1 1767.1953 15.0957)" fill="#5CADD5" font-family="'Courier'" font-size="12">1800</text>
	<text transform="matrix(1 0 0 1 1867.1953 15.0957)" fill="#5CADD5" font-family="'Courier'" font-size="12">1900</text>
	<text transform="matrix(1 0 0 1 1967.1953 15.0957)" fill="#5CADD5" font-family="'Courier'" font-size="12">2000</text>
</g>
<g id="Rules">
	<line fill="none" stroke="#5CADD5" stroke-miterlimit="10" x1="50.5" y1="10" x2="50.5" y2="20"/>
	<line fill="none" stroke="#5CADD5" stroke-miterlimit="10" x1="100.5" y1="5" x2="100.5" y2="20"/>
	<line fill="none" stroke="#5CADD5" stroke-miterlimit="10" x1="150.5" y1="10" x2="150.5" y2="20"/>
	<line fill="none" stroke="#5CADD5" stroke-miterlimit="10" x1="200.5" y1="5" x2="200.5" y2="20"/>
	<line fill="none" stroke="#5CADD5" stroke-miterlimit="10" x1="250.5" y1="10" x2="250.5" y2="20"/>
	<line fill="none" stroke="#5CADD5" stroke-miterlimit="10" x1="300.5" y1="5" x2="300.5" y2="20"/>
	<line fill="none" stroke="#5CADD5" stroke-miterlimit="10" x1="350.5" y1="10" x2="350.5" y2="20"/>
	<line fill="none" stroke="#5CADD5" stroke-miterlimit="10" x1="25.5" y1="15" x2="25.5" y2="20"/>
	<line fill="none" stroke="#5CADD5" stroke-miterlimit="10" x1="125.5" y1="15" x2="125.5" y2="20"/>
	<line fill="none" stroke="#5CADD5" stroke-miterlimit="10" x1="225.5" y1="15" x2="225.5" y2="20"/>
	<line fill="none" stroke="#5CADD5" stroke-miterlimit="10" x1="325.5" y1="15" x2="325.5" y2="20"/>
	<line fill="none" stroke="#5CADD5" stroke-miterlimit="10" x1="400.5" y1="5" x2="400.5" y2="20"/>
	<line fill="none" stroke="#5CADD5" stroke-miterlimit="10" x1="450.5" y1="10" x2="450.5" y2="20"/>
	<line fill="none" stroke="#5CADD5" stroke-miterlimit="10" x1="500.5" y1="5" x2="500.5" y2="20"/>
	<line fill="none" stroke="#5CADD5" stroke-miterlimit="10" x1="550.5" y1="10" x2="550.5" y2="20"/>
	<line fill="none" stroke="#5CADD5" stroke-miterlimit="10" x1="600.5" y1="5" x2="600.5" y2="20"/>
	<line fill="none" stroke="#5CADD5" stroke-miterlimit="10" x1="650.5" y1="10" x2="650.5" y2="20"/>
	<line fill="none" stroke="#5CADD5" stroke-miterlimit="10" x1="425.5" y1="15" x2="425.5" y2="20"/>
	<line fill="none" stroke="#5CADD5" stroke-miterlimit="10" x1="525.5" y1="15" x2="525.5" y2="20"/>
	<line fill="none" stroke="#5CADD5" stroke-miterlimit="10" x1="625.5" y1="15" x2="625.5" y2="20"/>
	<line fill="none" stroke="#5CADD5" stroke-miterlimit="10" x1="700.5" y1="5" x2="700.5" y2="20"/>
	<line fill="none" stroke="#5CADD5" stroke-miterlimit="10" x1="750.5" y1="10" x2="750.5" y2="20"/>
	<line fill="none" stroke="#5CADD5" stroke-miterlimit="10" x1="800.5" y1="5" x2="800.5" y2="20"/>
	<line fill="none" stroke="#5CADD5" stroke-miterlimit="10" x1="850.5" y1="10" x2="850.5" y2="20"/>
	<line fill="none" stroke="#5CADD5" stroke-miterlimit="10" x1="900.5" y1="5" x2="900.5" y2="20"/>
	<line fill="none" stroke="#5CADD5" stroke-miterlimit="10" x1="950.5" y1="10" x2="950.5" y2="20"/>
	<line fill="none" stroke="#5CADD5" stroke-miterlimit="10" x1="725.5" y1="15" x2="725.5" y2="20"/>
	<line fill="none" stroke="#5CADD5" stroke-miterlimit="10" x1="825.5" y1="15" x2="825.5" y2="20"/>
	<line fill="none" stroke="#5CADD5" stroke-miterlimit="10" x1="925.5" y1="15" x2="925.5" y2="20"/>
	<line fill="none" stroke="#5CADD5" stroke-miterlimit="10" x1="1000.5" y1="5" x2="1000.5" y2="20"/>
	<line fill="none" stroke="#5CADD5" stroke-miterlimit="10" x1="1050.5" y1="10" x2="1050.5" y2="20"/>
	<line fill="none" stroke="#5CADD5" stroke-miterlimit="10" x1="1100.5" y1="5" x2="1100.5" y2="20"/>
	<line fill="none" stroke="#5CADD5" stroke-miterlimit="10" x1="1150.5" y1="10" x2="1150.5" y2="20"/>
	<line fill="none" stroke="#5CADD5" stroke-miterlimit="10" x1="1200.5" y1="5" x2="1200.5" y2="20"/>
	<line fill="none" stroke="#5CADD5" stroke-miterlimit="10" x1="1250.5" y1="10" x2="1250.5" y2="20"/>
	<line fill="none" stroke="#5CADD5" stroke-miterlimit="10" x1="1025.5" y1="15" x2="1025.5" y2="20"/>
	<line fill="none" stroke="#5CADD5" stroke-miterlimit="10" x1="1125.5" y1="15" x2="1125.5" y2="20"/>
	<line fill="none" stroke="#5CADD5" stroke-miterlimit="10" x1="1225.5" y1="15" x2="1225.5" y2="20"/>
	<line fill="none" stroke="#5CADD5" stroke-miterlimit="10" x1="1300.5" y1="5" x2="1300.5" y2="20"/>
	<line fill="none" stroke="#5CADD5" stroke-miterlimit="10" x1="1350.5" y1="10" x2="1350.5" y2="20"/>
	<line fill="none" stroke="#5CADD5" stroke-miterlimit="10" x1="1400.5" y1="5" x2="1400.5" y2="20"/>
	<line fill="none" stroke="#5CADD5" stroke-miterlimit="10" x1="1450.5" y1="10" x2="1450.5" y2="20"/>
	<line fill="none" stroke="#5CADD5" stroke-miterlimit="10" x1="1500.5" y1="5" x2="1500.5" y2="20"/>
	<line fill="none" stroke="#5CADD5" stroke-miterlimit="10" x1="1550.5" y1="10" x2="1550.5" y2="20"/>
	<line fill="none" stroke="#5CADD5" stroke-miterlimit="10" x1="1325.5" y1="15" x2="1325.5" y2="20"/>
	<line fill="none" stroke="#5CADD5" stroke-miterlimit="10" x1="1425.5" y1="15" x2="1425.5" y2="20"/>
	<line fill="none" stroke="#5CADD5" stroke-miterlimit="10" x1="1525.5" y1="15" x2="1525.5" y2="20"/>
	<line fill="none" stroke="#5CADD5" stroke-miterlimit="10" x1="1600.5" y1="5" x2="1600.5" y2="20"/>
	<line fill="none" stroke="#5CADD5" stroke-miterlimit="10" x1="1650.5" y1="10" x2="1650.5" y2="20"/>
	<line fill="none" stroke="#5CADD5" stroke-miterlimit="10" x1="1700.5" y1="5" x2="1700.5" y2="20"/>
	<line fill="none" stroke="#5CADD5" stroke-miterlimit="10" x1="1750.5" y1="10" x2="1750.5" y2="20"/>
	<line fill="none" stroke="#5CADD5" stroke-miterlimit="10" x1="1800.5" y1="5" x2="1800.5" y2="20"/>
	<line fill="none" stroke="#5CADD5" stroke-miterlimit="10" x1="1850.5" y1="10" x2="1850.5" y2="20"/>
	<line fill="none" stroke="#5CADD5" stroke-miterlimit="10" x1="1625.5" y1="15" x2="1625.5" y2="20"/>
	<line fill="none" stroke="#5CADD5" stroke-miterlimit="10" x1="1725.5" y1="15" x2="1725.5" y2="20"/>
	<line fill="none" stroke="#5CADD5" stroke-miterlimit="10" x1="1825.5" y1="15" x2="1825.5" y2="20"/>
	<line fill="none" stroke="#5CADD5" stroke-miterlimit="10" x1="1900.5" y1="5" x2="1900.5" y2="20"/>
	<line fill="none" stroke="#5CADD5" stroke-miterlimit="10" x1="1950.5" y1="10" x2="1950.5" y2="20"/>
	<line fill="none" stroke="#5CADD5" stroke-miterlimit="10" x1="1925.5" y1="15" x2="1925.5" y2="20"/>
</g>
</svg>
