<?xml version="1.0" encoding="utf-8"?>
<!-- Generator: Adobe Illustrator 16.0.4, SVG Export Plug-In . SVG Version: 6.00 Build 0)  -->
<!DOCTYPE svg PUBLIC "-//W3C//DTD SVG 1.1//EN" "http://www.w3.org/Graphics/SVG/1.1/DTD/svg11.dtd">
<svg version="1.1" id="Layer_1" xmlns="http://www.w3.org/2000/svg" xmlns:xlink="http://www.w3.org/1999/xlink" x="0px" y="0px"
	 width="50px" height="450px" viewBox="0 0 50 450" enable-background="new 0 0 50 450" xml:space="preserve">
<line fill="none" stroke="#F1F2F2" stroke-miterlimit="10" x1="46" y1="0" x2="31" y2="0"/>
<line fill="none" stroke="#F1F2F2" stroke-miterlimit="10" x1="46" y1="50" x2="36" y2="50"/>
<line fill="none" stroke="#F1F2F2" stroke-miterlimit="10" x1="46" y1="100" x2="31" y2="100"/>
<line fill="none" stroke="#F1F2F2" stroke-miterlimit="10" x1="46" y1="150" x2="36" y2="150"/>
<line fill="none" stroke="#F1F2F2" stroke-miterlimit="10" x1="46" y1="200" x2="31" y2="200"/>
<line fill="none" stroke="#F1F2F2" stroke-miterlimit="10" x1="46" y1="250" x2="36" y2="250"/>
<line fill="none" stroke="#F1F2F2" stroke-miterlimit="10" x1="46" y1="300" x2="31" y2="300"/>
<line fill="none" stroke="#F1F2F2" stroke-miterlimit="10" x1="46" y1="350" x2="36" y2="350"/>
<line fill="none" stroke="#F1F2F2" stroke-miterlimit="10" x1="46" y1="400" x2="31" y2="400"/>
<text transform="matrix(1 0 0 1 11.7041 115)" fill="#F1F2F2" font-family="'Geogrotesque-Light'" font-size="12">100</text>
<text transform="matrix(1 0 0 1 11.7041 213)" fill="#F1F2F2" font-family="'Geogrotesque-Light'" font-size="12">200</text>
<text transform="matrix(1 0 0 1 11.7041 313)" fill="#F1F2F2" font-family="'Geogrotesque-Light'" font-size="12">300</text>
<text transform="matrix(1 0 0 1 11.7041 414)" fill="#F1F2F2" font-family="'Geogrotesque-Light'" font-size="12">400</text>
<text transform="matrix(1 0 0 1 24.5684 15)" fill="#F1F2F2" font-family="'Geogrotesque-Light'" font-size="12">0</text>
</svg>
