<?xml version="1.0" encoding="utf-8"?>
<!-- Generator: Adobe Illustrator 16.0.4, SVG Export Plug-In . SVG Version: 6.00 Build 0)  -->
<!DOCTYPE svg PUBLIC "-//W3C//DTD SVG 1.1//EN" "http://www.w3.org/Graphics/SVG/1.1/DTD/svg11.dtd">
<svg version="1.1" id="Layer_1" xmlns="http://www.w3.org/2000/svg" xmlns:xlink="http://www.w3.org/1999/xlink" x="0px" y="0px"
	 width="50px" height="450px" viewBox="0 0 50 450" enable-background="new 0 0 50 450" xml:space="preserve">
<line fill="none" stroke="#F1F2F2" stroke-miterlimit="10" x1="46" y1="0" x2="31" y2="0"/>
<line fill="none" stroke="#F1F2F2" stroke-miterlimit="10" x1="46" y1="49.868" x2="36" y2="49.868"/>
<line fill="none" stroke="#F1F2F2" stroke-miterlimit="10" x1="46" y1="99.882" x2="31" y2="99.882"/>
<line fill="none" stroke="#F1F2F2" stroke-miterlimit="10" x1="46" y1="149.75" x2="36" y2="149.75"/>
<line fill="none" stroke="#F1F2F2" stroke-miterlimit="10" x1="46" y1="199.618" x2="31" y2="199.618"/>
<line fill="none" stroke="#F1F2F2" stroke-miterlimit="10" x1="46" y1="249.632" x2="36" y2="249.632"/>
<line fill="none" stroke="#F1F2F2" stroke-miterlimit="10" x1="46" y1="299.5" x2="31" y2="299.5"/>
<line fill="none" stroke="#F1F2F2" stroke-miterlimit="10" x1="46" y1="349.368" x2="36" y2="349.368"/>
<line fill="none" stroke="#F1F2F2" stroke-miterlimit="10" x1="46" y1="399.382" x2="31" y2="399.382"/>
<text transform="matrix(1 0 0 1 25 15)" font-family="'Geogrotesque-Regular'" font-size="12">0</text>
<text transform="matrix(1 0 0 1 25 15)" fill="none" stroke="#F1F2F2" font-family="'Geogrotesque-Regular'" font-size="12">0</text>
<text transform="matrix(1 0 0 1 14 115)" font-family="'Geogrotesque-Regular'" font-size="12">100</text>
<text transform="matrix(1 0 0 1 14 115)" fill="none" stroke="#F1F2F2" font-family="'Geogrotesque-Regular'" font-size="12">100</text>
<text transform="matrix(1 0 0 1 14 213)" font-family="'Geogrotesque-Regular'" font-size="12">200</text>
<text transform="matrix(1 0 0 1 14 213)" fill="none" stroke="#F1F2F2" font-family="'Geogrotesque-Regular'" font-size="12">200</text>
<text transform="matrix(1 0 0 1 14 313)" font-family="'Geogrotesque-Regular'" font-size="12">300</text>
<text transform="matrix(1 0 0 1 14 313)" fill="none" stroke="#F1F2F2" font-family="'Geogrotesque-Regular'" font-size="12">300</text>
<text transform="matrix(1 0 0 1 14 414)" font-family="'Geogrotesque-Regular'" font-size="12">400</text>
<text transform="matrix(1 0 0 1 14 414)" fill="none" stroke="#F1F2F2" font-family="'Geogrotesque-Regular'" font-size="12">400</text>
</svg>
