<?xml version="1.0" encoding="utf-8"?>
<!-- Generator: Adobe Illustrator 16.0.4, SVG Export Plug-In . SVG Version: 6.00 Build 0)  -->
<!DOCTYPE svg PUBLIC "-//W3C//DTD SVG 1.1//EN" "http://www.w3.org/Graphics/SVG/1.1/DTD/svg11.dtd">
<svg version="1.1" xmlns="http://www.w3.org/2000/svg" xmlns:xlink="http://www.w3.org/1999/xlink" x="0px" y="0px" width="20px"
	 height="400px" viewBox="30 0 20 400" enable-background="new 30 0 20 400" xml:space="preserve">
<g id="Layer_2">
	<rect x="30" fill="#F9F9FC" width="20" height="400"/>
</g>
<g id="Layer_1">
	<line fill="none" stroke="#5CADD5" stroke-miterlimit="10" x1="49.5" y1="50.5" x2="39.5" y2="50.5"/>
	<line fill="none" stroke="#5CADD5" stroke-miterlimit="10" x1="49.5" y1="100.5" x2="34.5" y2="100.5"/>
	<line fill="none" stroke="#5CADD5" stroke-miterlimit="10" x1="49.5" y1="150.5" x2="39.5" y2="150.5"/>
	<line fill="none" stroke="#5CADD5" stroke-miterlimit="10" x1="49.5" y1="200.5" x2="34.5" y2="200.5"/>
	<line fill="none" stroke="#5CADD5" stroke-miterlimit="10" x1="49.5" y1="250.5" x2="39.5" y2="250.5"/>
	<line fill="none" stroke="#5CADD5" stroke-miterlimit="10" x1="49.5" y1="300.5" x2="34.5" y2="300.5"/>
	<line fill="none" stroke="#5CADD5" stroke-miterlimit="10" x1="49.5" y1="350.5" x2="39.5" y2="350.5"/>
	<text transform="matrix(4.489659e-11 -1 1 4.489659e-11 44.5801 97)" fill="#5CADD5" font-family="'Courier'" font-size="12">100</text>
	<text transform="matrix(4.489659e-11 -1 1 4.489659e-11 44.5801 195)" fill="#5CADD5" font-family="'Courier'" font-size="12">200</text>
	<text transform="matrix(4.489659e-11 -1 1 4.489659e-11 44.5801 295)" fill="#5CADD5" font-family="'Courier'" font-size="12">300</text>
	<text transform="matrix(4.489659e-11 -1 1 4.489659e-11 44.5801 396)" fill="#5CADD5" font-family="'Courier'" font-size="12">400</text>
	<line fill="none" stroke="#5CADD5" stroke-miterlimit="10" x1="49.5" y1="25.5" x2="44.5" y2="25.5"/>
	<line fill="none" stroke="#5CADD5" stroke-miterlimit="10" x1="49.5" y1="125.5" x2="44.5" y2="125.5"/>
	<line fill="none" stroke="#5CADD5" stroke-miterlimit="10" x1="49.5" y1="225.5" x2="44.5" y2="225.5"/>
	<line fill="none" stroke="#5CADD5" stroke-miterlimit="10" x1="49.5" y1="325.5" x2="44.5" y2="325.5"/>
</g>
</svg>
