<?xml version="1.0" encoding="utf-8"?>
<!-- Generator: Adobe Illustrator 16.0.4, SVG Export Plug-In . SVG Version: 6.00 Build 0)  -->
<!DOCTYPE svg PUBLIC "-//W3C//DTD SVG 1.1//EN" "http://www.w3.org/Graphics/SVG/1.1/DTD/svg11.dtd">
<svg version="1.1" id="Layer_1" xmlns="http://www.w3.org/2000/svg" xmlns:xlink="http://www.w3.org/1999/xlink" x="0px" y="0px"
	 width="50px" height="450px" viewBox="0 0 50 450" enable-background="new 0 0 50 450" xml:space="preserve">
<line fill="none" stroke="#F1F2F2" stroke-width="0.8165" stroke-miterlimit="10" enable-background="new    " x1="49.5" y1="0.5" x2="39.5" y2="0.5"/>
<line fill="none" stroke="#F1F2F2" stroke-miterlimit="10" enable-background="new    " x1="49.5" y1="50.5" x2="39.5" y2="50.5"/>
<line fill="none" stroke="#F1F2F2" stroke-miterlimit="10" enable-background="new    " x1="49.5" y1="100.5" x2="34.5" y2="100.5"/>
<line fill="none" stroke="#F1F2F2" stroke-miterlimit="10" enable-background="new    " x1="49.5" y1="150.5" x2="39.5" y2="150.5"/>
<line fill="none" stroke="#F1F2F2" stroke-miterlimit="10" enable-background="new    " x1="49.5" y1="200.5" x2="34.5" y2="200.5"/>
<line fill="none" stroke="#F1F2F2" stroke-miterlimit="10" enable-background="new    " x1="49.5" y1="250.5" x2="39.5" y2="250.5"/>
<line fill="none" stroke="#F1F2F2" stroke-miterlimit="10" enable-background="new    " x1="49.5" y1="300.5" x2="34.5" y2="300.5"/>
<line fill="none" stroke="#F1F2F2" stroke-miterlimit="10" enable-background="new    " x1="49.5" y1="350.5" x2="39.5" y2="350.5"/>
<line fill="none" stroke="#F1F2F2" stroke-miterlimit="10" enable-background="new    " x1="49.5" y1="399.5" x2="34.5" y2="399.5"/>
<text transform="matrix(4.489659e-11 -1 1 4.489659e-11 44.5801 97)" fill="#F1F2F2" font-family="'Geogrotesque-Light'" font-size="12">100</text>
<text transform="matrix(4.489659e-11 -1 1 4.489659e-11 44.5801 195)" fill="#F1F2F2" font-family="'Geogrotesque-Light'" font-size="12">200</text>
<text transform="matrix(4.489659e-11 -1 1 4.489659e-11 44.5801 295)" fill="#F1F2F2" font-family="'Geogrotesque-Light'" font-size="12">300</text>
<text transform="matrix(4.489659e-11 -1 1 4.489659e-11 44.5801 396)" fill="#F1F2F2" font-family="'Geogrotesque-Light'" font-size="12">400</text>
<line fill="none" stroke="#F1F2F2" stroke-miterlimit="10" enable-background="new    " x1="49.5" y1="25.5" x2="44.5" y2="25.5"/>
<line fill="none" stroke="#F1F2F2" stroke-miterlimit="10" enable-background="new    " x1="49.5" y1="125.5" x2="44.5" y2="125.5"/>
<line fill="none" stroke="#F1F2F2" stroke-miterlimit="10" enable-background="new    " x1="49.5" y1="225.5" x2="44.5" y2="225.5"/>
<line fill="none" stroke="#F1F2F2" stroke-miterlimit="10" enable-background="new    " x1="49.5" y1="325.5" x2="44.5" y2="325.5"/>
</svg>
