<?xml version="1.0" encoding="utf-8"?>
<!-- Generator: Adobe Illustrator 16.0.4, SVG Export Plug-In . SVG Version: 6.00 Build 0)  -->
<!DOCTYPE svg PUBLIC "-//W3C//DTD SVG 1.1//EN" "http://www.w3.org/Graphics/SVG/1.1/DTD/svg11.dtd">
<svg version="1.1" id="Layer_1" xmlns="http://www.w3.org/2000/svg" xmlns:xlink="http://www.w3.org/1999/xlink" x="0px" y="0px"
	 width="50px" height="450px" viewBox="0 0 50 450" enable-background="new 0 0 50 450" xml:space="preserve">
<line opacity="0.8" fill="none" stroke="#F1F2F2" stroke-miterlimit="10" x1="49.5" y1="0" x2="34.5" y2="0"/>
<line opacity="0.8" fill="none" stroke="#F1F2F2" stroke-miterlimit="10" x1="49.5" y1="50" x2="39.5" y2="50"/>
<line opacity="0.8" fill="none" stroke="#F1F2F2" stroke-miterlimit="10" x1="49.5" y1="100" x2="34.5" y2="100"/>
<line opacity="0.8" fill="none" stroke="#F1F2F2" stroke-miterlimit="10" x1="49.5" y1="150" x2="39.5" y2="150"/>
<line opacity="0.8" fill="none" stroke="#F1F2F2" stroke-miterlimit="10" x1="49.5" y1="200" x2="34.5" y2="200"/>
<line opacity="0.8" fill="none" stroke="#F1F2F2" stroke-miterlimit="10" x1="49.5" y1="250" x2="39.5" y2="250"/>
<line opacity="0.8" fill="none" stroke="#F1F2F2" stroke-miterlimit="10" x1="49.5" y1="300" x2="34.5" y2="300"/>
<line opacity="0.8" fill="none" stroke="#F1F2F2" stroke-miterlimit="10" x1="49.5" y1="350" x2="39.5" y2="350"/>
<line opacity="0.8" fill="none" stroke="#F1F2F2" stroke-miterlimit="10" x1="49.5" y1="400" x2="34.5" y2="400"/>
<text transform="matrix(4.489659e-11 -1 1 4.489659e-11 44.5801 97)" opacity="0.8" fill="#F1F2F2" font-family="'Geogrotesque-Thin'" font-size="12">100</text>
<text transform="matrix(4.489659e-11 -1 1 4.489659e-11 44.5801 195)" opacity="0.8" fill="#F1F2F2" font-family="'Geogrotesque-Thin'" font-size="12">200</text>
<text transform="matrix(4.489659e-11 -1 1 4.489659e-11 44.5801 295)" opacity="0.8" fill="#F1F2F2" font-family="'Geogrotesque-Thin'" font-size="12">300</text>
<text transform="matrix(4.489659e-11 -1 1 4.489659e-11 44.5801 396)" opacity="0.8" fill="#F1F2F2" font-family="'Geogrotesque-Thin'" font-size="12">400</text>
<line opacity="0.8" fill="none" stroke="#F1F2F2" stroke-miterlimit="10" x1="49.5" y1="25" x2="44.5" y2="25"/>
<line opacity="0.8" fill="none" stroke="#F1F2F2" stroke-miterlimit="10" x1="49.5" y1="125" x2="44.5" y2="125"/>
<line opacity="0.8" fill="none" stroke="#F1F2F2" stroke-miterlimit="10" x1="49.5" y1="225" x2="44.5" y2="225"/>
<line opacity="0.8" fill="none" stroke="#F1F2F2" stroke-miterlimit="10" x1="49.5" y1="325" x2="44.5" y2="325"/>
</svg>
